<svg xmlns="http://www.w3.org/2000/svg"  viewBox="0 0 66 66" width="66px" height="66px"><circle cx="33" cy="33" r="32" fill="#5ac6ef"/><path fill="#395263" d="M33,24.47c-3.92,0-7.11-3.19-7.11-7.11s3.19-7.11,7.11-7.11s7.11,3.19,7.11,7.11S36.92,24.47,33,24.47z M33,13.09c-2.35,0-4.27,1.91-4.27,4.27s1.91,4.27,4.27,4.27s4.27-1.91,4.27-4.27S35.35,13.09,33,13.09z"/><polygon fill="#eee" points="42.24,55.76 23.76,55.76 18.78,21.62 47.22,21.62"/><path fill="#fff" d="M46.51,15.93H19.49c-2.36,0-4.27,1.91-4.27,4.27c0,0.79,0.64,1.42,1.42,1.42h32.71 c0.79,0,1.42-0.64,1.42-1.42C50.78,17.84,48.87,15.93,46.51,15.93z"/><path fill="#ccc" d="M25.26,25.48L25.26,25.48c-1.03,0-1.83,0.91-1.7,1.93l2.45,19.12c0.08,0.63,0.62,1.1,1.26,1.1 c0.74,0,1.32-0.63,1.26-1.37l-1.57-19.21C26.89,26.16,26.15,25.48,25.26,25.48z"/><path fill="#ccc" d="M33.01,25.48h-0.02c-0.96,0-1.73,0.79-1.71,1.75l0.45,19.17c0.02,0.69,0.58,1.24,1.27,1.24h0.01 c0.69,0,1.25-0.55,1.27-1.24l0.45-19.17C34.74,26.27,33.97,25.48,33.01,25.48z"/><path fill="#ccc" d="M40.74,25.48c-0.89,0-1.63,0.68-1.7,1.57l-1.57,19.21c-0.06,0.74,0.52,1.37,1.26,1.37 c0.64,0,1.17-0.47,1.26-1.1l2.45-19.12C42.57,26.38,41.77,25.48,40.74,25.48z"/></svg>