<svg xmlns="http://www.w3.org/2000/svg" xmlns:xlink="http://www.w3.org/1999/xlink" viewBox="0,0,256,256" width="66px" height="66px" fill-rule="nonzero"><g fill="none" fill-rule="nonzero" stroke="none" stroke-width="1" stroke-linecap="butt" stroke-linejoin="miter" stroke-miterlimit="10" stroke-dasharray="" stroke-dashoffset="0" font-family="none" font-weight="none" font-size="none" text-anchor="none" style="mix-blend-mode: normal"><g transform="scale(3.87879,3.87879)"><circle cx="33" cy="33" r="32" fill-opacity="0" fill="#ffffff"></circle><path d="M33,24.47c-3.92,0 -7.11,-3.19 -7.11,-7.11c0,-3.92 3.19,-7.11 7.11,-7.11c3.92,0 7.11,3.19 7.11,7.11c0,3.92 -3.19,7.11 -7.11,7.11zM33,13.09c-2.35,0 -4.27,1.91 -4.27,4.27c0,2.36 1.91,4.27 4.27,4.27c2.36,0 4.27,-1.91 4.27,-4.27c0,-2.36 -1.92,-4.27 -4.27,-4.27z" fill="#395263"></path><path d="M42.24,55.76h-18.48l-4.98,-34.14h28.44z" fill="#eeeeee"></path><path d="M46.51,15.93h-27.02c-2.36,0 -4.27,1.91 -4.27,4.27c0,0.79 0.64,1.42 1.42,1.42h32.71c0.79,0 1.42,-0.64 1.42,-1.42c0.01,-2.36 -1.9,-4.27 -4.26,-4.27z" fill="#4f5355"></path><path d="M25.26,25.48v0c-1.03,0 -1.83,0.91 -1.7,1.93l2.45,19.12c0.08,0.63 0.62,1.1 1.26,1.1c0.74,0 1.32,-0.63 1.26,-1.37l-1.57,-19.21c-0.07,-0.89 -0.81,-1.57 -1.7,-1.57z" fill="#cccccc"></path><path d="M33.01,25.48h-0.02c-0.96,0 -1.73,0.79 -1.71,1.75l0.45,19.17c0.02,0.69 0.58,1.24 1.27,1.24h0.01c0.69,0 1.25,-0.55 1.27,-1.24l0.45,-19.17c0.01,-0.96 -0.76,-1.75 -1.72,-1.75z" fill="#cccccc"></path><path d="M40.74,25.48c-0.89,0 -1.63,0.68 -1.7,1.57l-1.57,19.21c-0.06,0.74 0.52,1.37 1.26,1.37c0.64,0 1.17,-0.47 1.26,-1.1l2.45,-19.12c0.13,-1.03 -0.67,-1.93 -1.7,-1.93z" fill="#cccccc"></path></g></g></svg>