<svg xmlns="http://www.w3.org/2000/svg"  viewBox="0 0 48 48" width="48px" height="48px"><path fill="#fff" d="M7,24c0,9.4,7.6,17,17,17s17-7.6,17-17c0-9.4-7.6-17-17-17S7,14.6,7,24"/><path fill="#dcedc8" d="M24,44C13,44,4,35,4,24C4,13,13,4,24,4c4.7,0,9.3,1.7,12.9,4.8l-2.6,3C31.5,9.3,27.8,8,24,8 C15.2,8,8,15.2,8,24s7.2,16,16,16V44z"/><path fill="#7cb342" d="M24,44C13,44,4,35,4,24c0-4.7,1.7-9.3,4.8-12.9l3,2.6C9.3,16.5,8,20.2,8,24c0,8.8,7.2,16,16,16 s16-7.2,16-16S32.8,8,24,8V4c11,0,20,9,20,20C44,35,35,44,24,44z"/><path fill="#7cb342" d="M27 12L19 6 27 0z"/><path d="M18,15l1.8-0.9l5.1,9.5l-1.8,0.9L18,15z"/><path d="M23.2,23.2l1.7,1.7L19.7,30L18,28.3L23.2,23.2z"/><path d="M22,24c0,1.1,0.9,2,2,2s2-0.9,2-2s-0.9-2-2-2S22,22.9,22,24"/><path fill="#8bc34a" d="M23,24c0,0.6,0.4,1,1,1s1-0.4,1-1s-0.4-1-1-1S23,23.4,23,24"/></svg>