<svg xmlns="http://www.w3.org/2000/svg"  viewBox="0 0 100 100" width="100px" height="100px" baseProfile="basic"><path d="M89.42,60.88c0,19.86-15.62,34.83-36.32,34.83c-20.7,0-36.31-14.53-36.31-33.81c0-8.11,1.34-19.34,11.82-34.33 c1.16-1.65,3.03-2.68,5.04-2.77c0.13-0.01,0.25-0.01,0.37-0.01c1.23,0,2.43,0.37,3.45,1.04c1.86-3.7,4.28-9.18,6.19-15.81 c0.61-2.11,2.22-3.75,4.3-4.4c0.63-0.2,1.29-0.3,1.95-0.3c1.5,0,2.96,0.52,4.11,1.46C66.02,16.57,70.1,26.8,73,33 c0.91-0.47,3.9-1.11,4.95-1.11c0.29,0,0.59,0.02,0.92,0.07c2,0.28,3.78,1.51,4.76,3.28C87.36,41.96,89.42,51.07,89.42,60.88z" opacity=".35"/><path fill="#f2f2f2" d="M87.42,58.88c0,19.86-15.62,34.83-36.32,34.83c-20.7,0-36.31-14.53-36.31-33.81 c0-8.11,1.34-19.34,11.82-34.33c1.16-1.65,3.03-2.68,5.04-2.77c0.13-0.01,0.25-0.01,0.37-0.01c1.23,0,2.43,0.37,3.45,1.04 c1.86-3.7,4.28-9.18,6.19-15.81c0.61-2.11,2.22-3.75,4.3-4.4c0.63-0.2,1.29-0.3,1.95-0.3c1.5,0,2.96,0.52,4.11,1.46 c12,9.79,18.05,19.63,20.95,25.83c0.91-0.47,1.93-0.72,2.98-0.72c0.29,0,0.59,0.02,0.92,0.07c2,0.28,3.78,1.51,4.76,3.28 C85.36,39.96,87.42,49.07,87.42,58.88z"/><path fill="#f4665c" d="M81.625,58.389c0-5.67-1.42-14.898-6.388-22.706l-4.259,4.259c0,0-3.225-16.036-22.978-30.942 c-3.549,14.196-12,25-12,25l-3.353-6.125C22.71,41.362,20.58,50.899,20.58,59.358c0,16.075,13.487,28.142,30.522,28.142 S81.625,75.433,81.625,58.389z"/><path fill="#d9eeff" d="M66.719,71.174c0-7.098-2.839-12.067-6.388-17.036c0,4.675-1.42,9.228-4.969,11.357 c0.71-4.259,1.42-13.487-6.388-22.714C43.364,56.804,35.487,60.89,35.487,71.174c0,8.518,8.258,14.196,16.082,14.196 S66.719,78.982,66.719,71.174z"/><path fill="#40396e" d="M51.103,88.713c-17.851,0-31.312-12.387-31.312-28.812c0-7.376,1.241-17.618,10.918-31.465 c0.276-0.396,0.726-0.634,1.208-0.641c0.472-0.045,0.938,0.218,1.226,0.605l2.595,3.489c0.15,0.122,0.348,0.179,0.543,0.157 c0.22-0.022,0.416-0.145,0.538-0.333c0.236-0.37,5.884-9.272,9.652-22.312c0.14-0.484,0.513-0.865,0.994-1.016 c0.481-0.151,1.004-0.051,1.396,0.27C66.851,23.33,70.476,38.045,70.51,38.192c0.053,0.225,0.209,0.413,0.419,0.504 c0.17,0.074,0.36,0.08,0.53,0.024l3.432-3.395c0.333-0.329,0.803-0.481,1.267-0.419c0.464,0.066,0.871,0.347,1.099,0.757 c3.326,5.991,5.157,14.236,5.157,23.219C82.415,75.889,68.954,88.713,51.103,88.713z M31.992,31.882 C23.868,44.163,22.79,53.271,22.79,59.9c0,14.716,12.172,25.812,28.312,25.812s28.312-11.534,28.312-26.83 c0-7.608-1.366-14.611-3.873-19.98l-2.152,2.129c-0.093,0.093-0.198,0.172-0.312,0.237c-1.021,0.582-2.272,0.649-3.346,0.178 c-1.071-0.464-1.873-1.425-2.142-2.568c-0.03-0.122-3.413-13.105-18.901-26.449c-3.858,12.257-9.113,20.539-9.348,20.905 c-0.618,0.96-1.619,1.577-2.748,1.696c-1.133,0.127-2.24-0.273-3.04-1.074c-0.051-0.052-0.099-0.106-0.142-0.165L31.992,31.882z"/></svg>